<svg width="264" height="270" xmlns="http://www.w3.org/2000/svg" xmlns:xlink="http://www.w3.org/1999/xlink" xml:space="preserve" overflow="hidden"><defs><clipPath id="clip0"><rect x="682" y="190" width="264" height="270"/></clipPath><clipPath id="clip1"><rect x="683" y="191" width="263" height="269"/></clipPath><clipPath id="clip2"><rect x="683" y="191" width="263" height="269"/></clipPath></defs><g clip-path="url(#clip0)" transform="translate(-682 -190)"><g clip-path="url(#clip1)"><g clip-path="url(#clip2)"><path d="M150.458 269.312 55.3052 174.16C53.7021 173.015 52.6143 171.641 52.0418 170.038 51.4693 168.435 51.1831 166.717 51.1831 164.885 51.1831 163.053 51.4693 161.393 52.0418 159.904 52.6143 158.416 53.7021 156.984 55.3052 155.61L150.801 59.7708C153.32 57.4807 156.354 56.393 159.904 56.5075 163.454 56.622 166.603 57.9388 169.351 60.4578 171.641 63.2059 172.786 66.412 172.786 70.0761 172.786 73.7402 171.526 76.8318 169.007 79.3509L96.8699 151.832 260.381 151.832C264.045 151.832 267.137 153.091 269.656 155.61 272.175 158.129 273.434 161.221 273.434 164.885 273.434 168.778 272.175 171.984 269.656 174.503 267.137 177.022 264.045 178.282 260.381 178.282L96.8699 178.282 169.694 250.763C171.984 253.511 173.072 256.66 172.958 260.209 172.843 263.759 171.526 266.793 169.007 269.312 166.259 272.06 163.053 273.434 159.389 273.434 155.725 273.434 152.748 272.06 150.458 269.312Z" fill="#000000" fill-rule="nonzero" fill-opacity="1" transform="matrix(1.00164 0 0 1 649.345 160.615)"/></g></g></g></svg>